<svg xmlns="http://www.w3.org/2000/svg" xmlns:xlink="http://www.w3.org/1999/xlink" width="48" zoomAndPan="magnify" viewBox="0 0 36 35.25" height="47" preserveAspectRatio="xMidYMid meet" version="1.0"><defs><clipPath id="48ea52d106"><path d="M 4 3 L 35.625 3 L 35.625 34.230469 L 4 34.230469 Z M 4 3 " clip-rule="nonzero"/></clipPath><clipPath id="141f07945d"><path d="M 1.324219 1.183594 L 16 1.183594 L 16 15 L 1.324219 15 Z M 1.324219 1.183594 " clip-rule="nonzero"/></clipPath><clipPath id="1fa5d0152e"><path d="M 20 3 L 35.625 3 L 35.625 34.230469 L 20 34.230469 Z M 20 3 " clip-rule="nonzero"/></clipPath><clipPath id="9c5675d809"><path d="M 0.375 0 L 16.125 0 L 16.125 16.007812 L 0.375 16.007812 Z M 0.375 0 " clip-rule="nonzero"/></clipPath><clipPath id="b2c9c19de7"><path d="M 12 10 L 28.617188 10 L 28.617188 27.410156 L 12 27.410156 Z M 12 10 " clip-rule="nonzero"/></clipPath><clipPath id="06c6e7a572"><path d="M 9.671875 9.785156 L 19 9.785156 L 19 19 L 9.671875 19 Z M 9.671875 9.785156 " clip-rule="nonzero"/></clipPath></defs><g clip-path="url(#48ea52d106)"><path fill="#5aff7a" d="M 20.003906 3.234375 L 23.902344 3.234375 C 30.296875 3.234375 35.496094 8.433594 35.496094 14.824219 L 35.496094 34.214844 L 16.109375 34.214844 C 9.714844 34.214844 4.515625 29.015625 4.515625 22.621094 L 4.515625 18.722656 L 10.976562 18.722656 L 10.976562 22.621094 C 10.976562 25.453125 13.277344 27.75 16.109375 27.75 L 29.035156 27.75 L 29.035156 14.824219 C 29.035156 11.996094 26.730469 9.695312 23.902344 9.695312 L 20.007812 9.695312 L 20.007812 3.234375 Z M 20.003906 3.234375 " fill-opacity="1" fill-rule="nonzero"/></g><g clip-path="url(#141f07945d)"><path fill="#14edb9" d="M 5.914062 5.59375 L 1.324219 5.59375 L 1.324219 10.113281 L 5.914062 10.113281 L 5.914062 14.703125 L 10.433594 14.703125 L 10.433594 10.113281 L 15.023438 10.113281 L 15.023438 5.59375 L 10.433594 5.59375 L 10.433594 1.003906 L 5.914062 1.003906 Z M 5.914062 5.59375 " fill-opacity="1" fill-rule="nonzero"/></g><g clip-path="url(#1fa5d0152e)"><path fill="#d1ff5d" d="M 20.003906 3.234375 L 23.902344 3.234375 C 30.296875 3.234375 35.496094 8.433594 35.496094 14.824219 L 35.496094 34.214844 L 35.175781 34.214844 L 28.902344 27.75 L 29.035156 27.75 L 29.035156 14.824219 C 29.035156 11.996094 26.730469 9.695312 23.902344 9.695312 L 20.003906 9.695312 Z M 20.003906 3.234375 " fill-opacity="1" fill-rule="nonzero"/></g><g clip-path="url(#9c5675d809)"><path fill="#0d2329" d="M 0.375 16.007812 L 0.375 0.0117188 L 16.125 0.0117188 L 16.125 16.007812 Z M 0.375 16.007812 " fill-opacity="1" fill-rule="nonzero"/></g><g clip-path="url(#b2c9c19de7)"><path fill="#14edb9" d="M 12.328125 16.875 C 12.210938 17.390625 12.152344 17.929688 12.152344 18.484375 C 12.152344 22.542969 15.441406 25.832031 19.5 25.832031 C 23.558594 25.832031 26.851562 22.542969 26.851562 18.484375 C 26.851562 14.425781 23.558594 11.132812 19.5 11.132812 C 18.09375 11.132812 16.78125 11.527344 15.664062 12.214844 C 16.992188 11.308594 18.597656 10.78125 20.324219 10.78125 C 24.902344 10.78125 28.613281 14.492188 28.613281 19.070312 C 28.613281 23.648438 24.902344 27.359375 20.324219 27.359375 C 15.746094 27.359375 12.035156 23.648438 12.035156 19.070312 C 12.035156 18.308594 12.136719 17.574219 12.328125 16.875 " fill-opacity="1" fill-rule="nonzero"/></g><path fill="#5aff7a" d="M 19.714844 18.761719 C 20.101562 19.695312 19.820312 20.550781 19.546875 21.070312 C 19.566406 20.472656 19.003906 19.308594 17.78125 18.335938 C 17.78125 18.335938 18.925781 19.515625 19.21875 20.652344 C 19.429688 21.457031 20.09375 22.070312 20.921875 22.179688 C 21.285156 22.226562 21.660156 22.210938 22.039062 22.132812 C 23.832031 21.753906 24.992188 19.988281 24.625 18.195312 C 24.265625 16.425781 22.574219 15.269531 20.808594 15.5625 C 20.847656 15.550781 20.890625 15.542969 20.929688 15.535156 C 22.882812 15.144531 24.785156 16.410156 25.175781 18.363281 C 25.566406 20.316406 24.300781 22.21875 22.347656 22.609375 C 21.34375 22.808594 20.347656 22.570312 19.570312 22.027344 C 19.199219 21.765625 18.800781 21.542969 18.394531 21.347656 C 17.753906 21.042969 16.957031 20.335938 16.851562 18.703125 C 16.75 17.097656 15.84375 16.5625 15.84375 16.5625 C 15.84375 16.5625 18.816406 16.605469 19.714844 18.761719 " fill-opacity="1" fill-rule="nonzero"/><path fill="#5aff7a" d="M 22.105469 18.980469 C 22.058594 20.984375 20.492188 21.113281 20.492188 21.113281 C 20.132812 20.199219 21.429688 18.746094 21.429688 18.746094 C 20.578125 19.476562 20.210938 20.328125 20.242188 20.757812 C 20.03125 20.394531 19.804688 19.785156 20.054688 19.105469 C 20.636719 17.53125 22.765625 17.414062 22.765625 17.414062 C 22.765625 17.414062 22.132812 17.824219 22.105469 18.980469 " fill-opacity="1" fill-rule="nonzero"/><g clip-path="url(#06c6e7a572)"><path fill="#14edb9" d="M 12.417969 12.34375 L 12.417969 9.96875 C 12.417969 9.867188 12.503906 9.78125 12.605469 9.78125 L 15.382812 9.78125 C 15.484375 9.78125 15.566406 9.867188 15.566406 9.96875 L 15.566406 12.34375 C 15.566406 12.445312 15.652344 12.53125 15.753906 12.53125 L 18.128906 12.53125 C 18.230469 12.53125 18.316406 12.613281 18.316406 12.714844 L 18.316406 15.492188 C 18.316406 15.59375 18.230469 15.675781 18.128906 15.675781 L 15.753906 15.675781 C 15.652344 15.675781 15.566406 15.761719 15.566406 15.863281 L 15.566406 18.238281 C 15.566406 18.339844 15.484375 18.425781 15.382812 18.425781 L 12.605469 18.425781 C 12.503906 18.425781 12.417969 18.339844 12.417969 18.238281 L 12.417969 15.863281 C 12.417969 15.761719 12.335938 15.675781 12.234375 15.675781 L 9.859375 15.675781 C 9.757812 15.675781 9.671875 15.59375 9.671875 15.492188 L 9.671875 12.714844 C 9.671875 12.613281 9.757812 12.53125 9.859375 12.53125 L 12.234375 12.53125 C 12.335938 12.53125 12.417969 12.445312 12.417969 12.34375 " fill-opacity="1" fill-rule="nonzero"/></g><path fill="#14edb9" d="M 16.339844 22.570312 L 16.339844 21.890625 C 16.339844 21.863281 16.363281 21.839844 16.394531 21.839844 L 17.183594 21.839844 C 17.214844 21.839844 17.238281 21.863281 17.238281 21.890625 L 17.238281 22.570312 C 17.238281 22.597656 17.261719 22.621094 17.289062 22.621094 L 17.96875 22.621094 C 17.996094 22.621094 18.019531 22.644531 18.019531 22.675781 L 18.019531 23.46875 C 18.019531 23.496094 17.996094 23.519531 17.96875 23.519531 L 17.289062 23.519531 C 17.261719 23.519531 17.238281 23.542969 17.238281 23.574219 L 17.238281 24.25 C 17.238281 24.28125 17.214844 24.304688 17.183594 24.304688 L 16.394531 24.304688 C 16.363281 24.304688 16.339844 24.28125 16.339844 24.25 L 16.339844 23.574219 C 16.339844 23.542969 16.316406 23.519531 16.289062 23.519531 L 15.609375 23.519531 C 15.582031 23.519531 15.558594 23.496094 15.558594 23.46875 L 15.558594 22.675781 C 15.558594 22.644531 15.582031 22.621094 15.609375 22.621094 L 16.289062 22.621094 C 16.316406 22.621094 16.339844 22.597656 16.339844 22.570312 " fill-opacity="1" fill-rule="nonzero"/><path fill="#14edb9" d="M 21.328125 12.96875 L 21.328125 12.289062 C 21.328125 12.261719 21.351562 12.238281 21.382812 12.238281 L 22.171875 12.238281 C 22.203125 12.238281 22.226562 12.261719 22.226562 12.289062 L 22.226562 12.96875 C 22.226562 12.996094 22.25 13.019531 22.277344 13.019531 L 22.957031 13.019531 C 22.984375 13.019531 23.007812 13.042969 23.007812 13.074219 L 23.007812 13.863281 C 23.007812 13.894531 22.984375 13.917969 22.957031 13.917969 L 22.277344 13.917969 C 22.25 13.917969 22.226562 13.941406 22.226562 13.972656 L 22.226562 14.648438 C 22.226562 14.675781 22.203125 14.703125 22.171875 14.703125 L 21.382812 14.703125 C 21.351562 14.703125 21.328125 14.675781 21.328125 14.648438 L 21.328125 13.972656 C 21.328125 13.941406 21.304688 13.917969 21.277344 13.917969 L 20.597656 13.917969 C 20.570312 13.917969 20.546875 13.894531 20.546875 13.863281 L 20.546875 13.074219 C 20.546875 13.042969 20.570312 13.019531 20.597656 13.019531 L 21.277344 13.019531 C 21.304688 13.019531 21.328125 12.996094 21.328125 12.96875 " fill-opacity="1" fill-rule="nonzero"/></svg>