<svg xmlns="http://www.w3.org/2000/svg" xmlns:xlink="http://www.w3.org/1999/xlink" width="247" zoomAndPan="magnify" viewBox="0 0 185.25 50.249999" height="67" preserveAspectRatio="xMidYMid meet" version="1.0"><defs><g/><clipPath id="ac2317daf2"><path d="M 5 5 L 36.679688 5 L 36.679688 36.378906 L 5 36.378906 Z M 5 5 " clip-rule="nonzero"/></clipPath><clipPath id="e78d8309c3"><path d="M 1.949219 3.125 L 16 3.125 L 16 17 L 1.949219 17 Z M 1.949219 3.125 " clip-rule="nonzero"/></clipPath><clipPath id="74038c335d"><path d="M 20 5 L 36.679688 5 L 36.679688 36.378906 L 20 36.378906 Z M 20 5 " clip-rule="nonzero"/></clipPath><clipPath id="f36840ce3c"><path d="M 0.992188 1.925781 L 16.84375 1.925781 L 16.84375 18.042969 L 0.992188 18.042969 Z M 0.992188 1.925781 " clip-rule="nonzero"/></clipPath><clipPath id="4f64f05553"><path d="M 12 12 L 29.410156 12 L 29.410156 29.515625 L 12 29.515625 Z M 12 12 " clip-rule="nonzero"/></clipPath><clipPath id="ba9f4a044e"><path d="M 10.347656 11.777344 L 20 11.777344 L 20 21 L 10.347656 21 Z M 10.347656 11.777344 " clip-rule="nonzero"/></clipPath></defs><g clip-path="url(#ac2317daf2)"><path fill="#5aff7a" d="M 20.746094 5.1875 L 24.667969 5.1875 C 31.101562 5.1875 36.332031 10.421875 36.332031 16.851562 L 36.332031 36.363281 L 16.824219 36.363281 C 10.390625 36.363281 5.160156 31.128906 5.160156 24.699219 L 5.160156 20.773438 L 11.660156 20.773438 L 11.660156 24.699219 C 11.660156 27.546875 13.976562 29.859375 16.824219 29.859375 L 29.832031 29.859375 L 29.832031 16.851562 C 29.832031 14.007812 27.515625 11.691406 24.667969 11.691406 L 20.746094 11.691406 Z M 20.746094 5.1875 " fill-opacity="1" fill-rule="nonzero"/></g><g clip-path="url(#e78d8309c3)"><path fill="#14edb9" d="M 6.566406 7.5625 L 1.949219 7.5625 L 1.949219 12.109375 L 6.566406 12.109375 L 6.566406 16.730469 L 11.113281 16.730469 L 11.113281 12.109375 L 15.734375 12.109375 L 15.734375 7.5625 L 11.113281 7.5625 L 11.113281 2.941406 L 6.566406 2.941406 Z M 6.566406 7.5625 " fill-opacity="1" fill-rule="nonzero"/></g><g clip-path="url(#74038c335d)"><path fill="#d1ff5d" d="M 20.746094 5.1875 L 24.667969 5.1875 C 31.101562 5.1875 36.332031 10.421875 36.332031 16.851562 L 36.332031 36.363281 L 36.011719 36.363281 L 29.695312 29.859375 L 29.832031 29.859375 L 29.832031 16.851562 C 29.832031 14.007812 27.515625 11.691406 24.667969 11.691406 L 20.746094 11.691406 Z M 20.746094 5.1875 " fill-opacity="1" fill-rule="nonzero"/></g><g clip-path="url(#f36840ce3c)"><path fill="#0d2329" d="M 0.992188 18.042969 L 0.992188 1.945312 L 16.84375 1.945312 L 16.84375 18.042969 Z M 0.992188 18.042969 " fill-opacity="1" fill-rule="nonzero"/></g><g clip-path="url(#4f64f05553)"><path fill="#14edb9" d="M 13.019531 18.914062 C 12.90625 19.433594 12.84375 19.976562 12.84375 20.53125 C 12.84375 24.617188 16.152344 27.929688 20.238281 27.929688 C 24.320312 27.929688 27.632812 24.617188 27.632812 20.53125 C 27.632812 16.449219 24.320312 13.136719 20.238281 13.136719 C 18.824219 13.136719 17.503906 13.535156 16.378906 14.222656 C 17.714844 13.3125 19.328125 12.78125 21.066406 12.78125 C 25.671875 12.78125 29.40625 16.519531 29.40625 21.125 C 29.40625 25.730469 25.671875 29.464844 21.066406 29.464844 C 16.460938 29.464844 12.722656 25.730469 12.722656 21.125 C 12.722656 20.359375 12.828125 19.617188 13.019531 18.914062 " fill-opacity="1" fill-rule="nonzero"/></g><path fill="#5aff7a" d="M 20.453125 20.816406 C 20.84375 21.75 20.558594 22.613281 20.285156 23.136719 C 20.304688 22.53125 19.738281 21.363281 18.507812 20.386719 C 18.507812 20.386719 19.660156 21.574219 19.957031 22.714844 C 20.167969 23.527344 20.835938 24.144531 21.667969 24.25 C 22.035156 24.296875 22.414062 24.285156 22.792969 24.207031 C 24.59375 23.824219 25.761719 22.046875 25.394531 20.242188 C 25.035156 18.464844 23.332031 17.300781 21.554688 17.59375 C 21.59375 17.582031 21.636719 17.574219 21.675781 17.566406 C 23.640625 17.171875 25.554688 18.445312 25.949219 20.410156 C 26.34375 22.378906 25.070312 24.289062 23.105469 24.683594 C 22.089844 24.886719 21.09375 24.648438 20.308594 24.097656 C 19.933594 23.835938 19.535156 23.613281 19.121094 23.414062 C 18.480469 23.109375 17.679688 22.398438 17.574219 20.753906 C 17.46875 19.140625 16.558594 18.601562 16.558594 18.601562 C 16.558594 18.601562 19.546875 18.640625 20.453125 20.816406 " fill-opacity="1" fill-rule="nonzero"/><path fill="#5aff7a" d="M 22.859375 21.03125 C 22.8125 23.046875 21.238281 23.179688 21.238281 23.179688 C 20.871094 22.257812 22.179688 20.796875 22.179688 20.796875 C 21.324219 21.53125 20.953125 22.390625 20.984375 22.820312 C 20.773438 22.457031 20.542969 21.84375 20.796875 21.160156 C 21.378906 19.574219 23.523438 19.457031 23.523438 19.457031 C 23.523438 19.457031 22.886719 19.871094 22.859375 21.03125 " fill-opacity="1" fill-rule="nonzero"/><g clip-path="url(#ba9f4a044e)"><path fill="#14edb9" d="M 13.113281 14.355469 L 13.113281 11.964844 C 13.113281 11.863281 13.195312 11.777344 13.300781 11.777344 L 16.09375 11.777344 C 16.195312 11.777344 16.28125 11.863281 16.28125 11.964844 L 16.28125 14.355469 C 16.28125 14.457031 16.363281 14.542969 16.46875 14.542969 L 18.855469 14.542969 C 18.960938 14.542969 19.042969 14.625 19.042969 14.730469 L 19.042969 17.523438 C 19.042969 17.625 18.960938 17.710938 18.855469 17.710938 L 16.46875 17.710938 C 16.363281 17.710938 16.28125 17.792969 16.28125 17.898438 L 16.28125 20.285156 C 16.28125 20.390625 16.195312 20.472656 16.09375 20.472656 L 13.300781 20.472656 C 13.195312 20.472656 13.113281 20.390625 13.113281 20.285156 L 13.113281 17.898438 C 13.113281 17.792969 13.027344 17.710938 12.925781 17.710938 L 10.535156 17.710938 C 10.433594 17.710938 10.347656 17.625 10.347656 17.523438 L 10.347656 14.730469 C 10.347656 14.625 10.433594 14.542969 10.535156 14.542969 L 12.925781 14.542969 C 13.027344 14.542969 13.113281 14.457031 13.113281 14.355469 " fill-opacity="1" fill-rule="nonzero"/></g><path fill="#14edb9" d="M 17.058594 24.644531 L 17.058594 23.964844 C 17.058594 23.933594 17.082031 23.910156 17.109375 23.910156 L 17.90625 23.910156 C 17.9375 23.910156 17.960938 23.933594 17.960938 23.964844 L 17.960938 24.644531 C 17.960938 24.675781 17.984375 24.699219 18.015625 24.699219 L 18.695312 24.699219 C 18.726562 24.699219 18.75 24.722656 18.75 24.75 L 18.75 25.546875 C 18.75 25.578125 18.726562 25.601562 18.695312 25.601562 L 18.015625 25.601562 C 17.984375 25.601562 17.960938 25.625 17.960938 25.65625 L 17.960938 26.335938 C 17.960938 26.367188 17.9375 26.390625 17.90625 26.390625 L 17.109375 26.390625 C 17.082031 26.390625 17.058594 26.367188 17.058594 26.335938 L 17.058594 25.65625 C 17.058594 25.625 17.035156 25.601562 17.003906 25.601562 L 16.324219 25.601562 C 16.292969 25.601562 16.269531 25.578125 16.269531 25.546875 L 16.269531 24.75 C 16.269531 24.722656 16.292969 24.699219 16.324219 24.699219 L 17.003906 24.699219 C 17.035156 24.699219 17.058594 24.675781 17.058594 24.644531 " fill-opacity="1" fill-rule="nonzero"/><path fill="#14edb9" d="M 22.078125 14.984375 L 22.078125 14.300781 C 22.078125 14.273438 22.101562 14.25 22.128906 14.25 L 22.925781 14.25 C 22.957031 14.25 22.980469 14.273438 22.980469 14.300781 L 22.980469 14.984375 C 22.980469 15.011719 23.003906 15.035156 23.035156 15.035156 L 23.714844 15.035156 C 23.746094 15.035156 23.769531 15.058594 23.769531 15.089844 L 23.769531 15.886719 C 23.769531 15.914062 23.746094 15.9375 23.714844 15.9375 L 23.035156 15.9375 C 23.003906 15.9375 22.980469 15.964844 22.980469 15.992188 L 22.980469 16.671875 C 22.980469 16.703125 22.957031 16.726562 22.925781 16.726562 L 22.128906 16.726562 C 22.101562 16.726562 22.078125 16.703125 22.078125 16.671875 L 22.078125 15.992188 C 22.078125 15.964844 22.054688 15.9375 22.023438 15.9375 L 21.34375 15.9375 C 21.3125 15.9375 21.289062 15.914062 21.289062 15.886719 L 21.289062 15.089844 C 21.289062 15.058594 21.3125 15.035156 21.34375 15.035156 L 22.023438 15.035156 C 22.054688 15.035156 22.078125 15.011719 22.078125 14.984375 " fill-opacity="1" fill-rule="nonzero"/><g fill="#ffffff" fill-opacity="1"><g transform="translate(42.100249, 34.349519)"><g><path d="M 2.25 0 L 2.25 -21.328125 L 4.8125 -21.328125 L 16.171875 -4.234375 L 16.171875 -21.328125 L 18.734375 -21.328125 L 18.734375 0 L 16.171875 0 L 4.8125 -17.09375 L 4.8125 0 Z M 2.25 0 "/></g></g></g><g fill="#ffffff" fill-opacity="1"><g transform="translate(60.191467, 34.349519)"><g><path d="M 8.890625 0.359375 C 7.453125 0.359375 6.171875 0.03125 5.046875 -0.625 C 3.929688 -1.28125 3.054688 -2.195312 2.421875 -3.375 C 1.785156 -4.5625 1.46875 -5.957031 1.46875 -7.5625 C 1.46875 -9.144531 1.78125 -10.53125 2.40625 -11.71875 C 3.03125 -12.90625 3.90625 -13.828125 5.03125 -14.484375 C 6.164062 -15.148438 7.472656 -15.484375 8.953125 -15.484375 C 10.421875 -15.484375 11.6875 -15.148438 12.75 -14.484375 C 13.8125 -13.828125 14.628906 -12.957031 15.203125 -11.875 C 15.773438 -10.800781 16.0625 -9.644531 16.0625 -8.40625 C 16.0625 -8.1875 16.054688 -7.960938 16.046875 -7.734375 C 16.035156 -7.515625 16.03125 -7.265625 16.03125 -6.984375 L 3.984375 -6.984375 C 4.046875 -5.816406 4.316406 -4.851562 4.796875 -4.09375 C 5.273438 -3.332031 5.875 -2.757812 6.59375 -2.375 C 7.3125 -1.988281 8.078125 -1.796875 8.890625 -1.796875 C 9.953125 -1.796875 10.835938 -2.039062 11.546875 -2.53125 C 12.253906 -3.019531 12.769531 -3.679688 13.09375 -4.515625 L 15.625 -4.515625 C 15.21875 -3.109375 14.441406 -1.941406 13.296875 -1.015625 C 12.148438 -0.0976562 10.679688 0.359375 8.890625 0.359375 Z M 8.890625 -13.3125 C 7.671875 -13.3125 6.585938 -12.941406 5.640625 -12.203125 C 4.703125 -11.460938 4.160156 -10.378906 4.015625 -8.953125 L 13.53125 -8.953125 C 13.46875 -10.316406 13 -11.382812 12.125 -12.15625 C 11.25 -12.925781 10.171875 -13.3125 8.890625 -13.3125 Z M 8.890625 -13.3125 "/></g></g></g><g fill="#ffffff" fill-opacity="1"><g transform="translate(74.627531, 34.349519)"><g><path d="M 0.578125 0 L 5.8125 -7.5625 L 0.578125 -15.109375 L 3.34375 -15.109375 L 7.59375 -8.859375 L 11.859375 -15.109375 L 14.59375 -15.109375 L 9.359375 -7.5625 L 14.59375 0 L 11.859375 0 L 7.59375 -6.25 L 3.34375 0 Z M 0.578125 0 "/></g></g></g><g fill="#ffffff" fill-opacity="1"><g transform="translate(86.900975, 34.349519)"><g><path d="M 7.609375 0.359375 C 5.828125 0.359375 4.40625 -0.179688 3.34375 -1.265625 C 2.289062 -2.347656 1.765625 -4.019531 1.765625 -6.28125 L 1.765625 -15.109375 L 4.328125 -15.109375 L 4.328125 -6.546875 C 4.328125 -3.398438 5.617188 -1.828125 8.203125 -1.828125 C 9.515625 -1.828125 10.601562 -2.296875 11.46875 -3.234375 C 12.332031 -4.179688 12.765625 -5.53125 12.765625 -7.28125 L 12.765625 -15.109375 L 15.328125 -15.109375 L 15.328125 0 L 13.015625 0 L 12.828125 -2.71875 C 12.359375 -1.757812 11.660156 -1.003906 10.734375 -0.453125 C 9.816406 0.0859375 8.773438 0.359375 7.609375 0.359375 Z M 7.609375 0.359375 "/></g></g></g><g fill="#ffffff" fill-opacity="1"><g transform="translate(101.428419, 34.349519)"><g><path d="M 7.890625 0.359375 C 6.078125 0.359375 4.570312 -0.09375 3.375 -1 C 2.175781 -1.914062 1.476562 -3.15625 1.28125 -4.71875 L 3.90625 -4.71875 C 4.0625 -3.925781 4.476562 -3.238281 5.15625 -2.65625 C 5.84375 -2.082031 6.765625 -1.796875 7.921875 -1.796875 C 8.992188 -1.796875 9.785156 -2.023438 10.296875 -2.484375 C 10.804688 -2.941406 11.0625 -3.484375 11.0625 -4.109375 C 11.0625 -5.023438 10.726562 -5.632812 10.0625 -5.9375 C 9.40625 -6.238281 8.476562 -6.515625 7.28125 -6.765625 C 6.46875 -6.921875 5.65625 -7.148438 4.84375 -7.453125 C 4.03125 -7.765625 3.347656 -8.195312 2.796875 -8.75 C 2.253906 -9.3125 1.984375 -10.050781 1.984375 -10.96875 C 1.984375 -12.289062 2.472656 -13.375 3.453125 -14.21875 C 4.441406 -15.0625 5.78125 -15.484375 7.46875 -15.484375 C 9.070312 -15.484375 10.382812 -15.082031 11.40625 -14.28125 C 12.4375 -13.476562 13.03125 -12.332031 13.1875 -10.84375 L 10.65625 -10.84375 C 10.5625 -11.613281 10.234375 -12.21875 9.671875 -12.65625 C 9.109375 -13.09375 8.363281 -13.3125 7.4375 -13.3125 C 6.519531 -13.3125 5.8125 -13.117188 5.3125 -12.734375 C 4.8125 -12.347656 4.5625 -11.84375 4.5625 -11.21875 C 4.5625 -10.601562 4.878906 -10.125 5.515625 -9.78125 C 6.160156 -9.4375 7.035156 -9.140625 8.140625 -8.890625 C 9.066406 -8.691406 9.953125 -8.441406 10.796875 -8.140625 C 11.640625 -7.847656 12.332031 -7.410156 12.875 -6.828125 C 13.414062 -6.253906 13.6875 -5.421875 13.6875 -4.328125 C 13.695312 -2.960938 13.179688 -1.835938 12.140625 -0.953125 C 11.097656 -0.078125 9.679688 0.359375 7.890625 0.359375 Z M 7.890625 0.359375 "/></g></g></g><g fill="#ffffff" fill-opacity="1"><g transform="translate(113.762788, 34.349519)"><g><path d="M 2.25 0 L 2.25 -21.328125 L 5.234375 -21.328125 L 12.921875 -6.453125 L 20.53125 -21.328125 L 23.546875 -21.328125 L 23.546875 0 L 21 0 L 21 -16.75 L 13.859375 -3.046875 L 11.9375 -3.046875 L 4.8125 -16.734375 L 4.8125 0 Z M 2.25 0 "/></g></g></g><g fill="#ffffff" fill-opacity="1"><g transform="translate(136.66661, 34.349519)"><g><path d="M 8.890625 0.359375 C 7.453125 0.359375 6.171875 0.03125 5.046875 -0.625 C 3.929688 -1.28125 3.054688 -2.195312 2.421875 -3.375 C 1.785156 -4.5625 1.46875 -5.957031 1.46875 -7.5625 C 1.46875 -9.144531 1.78125 -10.53125 2.40625 -11.71875 C 3.03125 -12.90625 3.90625 -13.828125 5.03125 -14.484375 C 6.164062 -15.148438 7.472656 -15.484375 8.953125 -15.484375 C 10.421875 -15.484375 11.6875 -15.148438 12.75 -14.484375 C 13.8125 -13.828125 14.628906 -12.957031 15.203125 -11.875 C 15.773438 -10.800781 16.0625 -9.644531 16.0625 -8.40625 C 16.0625 -8.1875 16.054688 -7.960938 16.046875 -7.734375 C 16.035156 -7.515625 16.03125 -7.265625 16.03125 -6.984375 L 3.984375 -6.984375 C 4.046875 -5.816406 4.316406 -4.851562 4.796875 -4.09375 C 5.273438 -3.332031 5.875 -2.757812 6.59375 -2.375 C 7.3125 -1.988281 8.078125 -1.796875 8.890625 -1.796875 C 9.953125 -1.796875 10.835938 -2.039062 11.546875 -2.53125 C 12.253906 -3.019531 12.769531 -3.679688 13.09375 -4.515625 L 15.625 -4.515625 C 15.21875 -3.109375 14.441406 -1.941406 13.296875 -1.015625 C 12.148438 -0.0976562 10.679688 0.359375 8.890625 0.359375 Z M 8.890625 -13.3125 C 7.671875 -13.3125 6.585938 -12.941406 5.640625 -12.203125 C 4.703125 -11.460938 4.160156 -10.378906 4.015625 -8.953125 L 13.53125 -8.953125 C 13.46875 -10.316406 13 -11.382812 12.125 -12.15625 C 11.25 -12.925781 10.171875 -13.3125 8.890625 -13.3125 Z M 8.890625 -13.3125 "/></g></g></g><g fill="#ffffff" fill-opacity="1"><g transform="translate(151.102673, 34.349519)"><g><path d="M 8.953125 0.359375 C 7.453125 0.359375 6.140625 0.015625 5.015625 -0.671875 C 3.890625 -1.359375 3.015625 -2.300781 2.390625 -3.5 C 1.773438 -4.695312 1.46875 -6.0625 1.46875 -7.59375 C 1.46875 -9.113281 1.78125 -10.46875 2.40625 -11.65625 C 3.03125 -12.84375 3.898438 -13.773438 5.015625 -14.453125 C 6.140625 -15.140625 7.460938 -15.484375 8.984375 -15.484375 C 10.222656 -15.484375 11.316406 -15.226562 12.265625 -14.71875 C 13.222656 -14.207031 13.96875 -13.492188 14.5 -12.578125 L 14.5 -21.9375 L 17.0625 -21.9375 L 17.0625 0 L 14.75 0 L 14.5 -2.5 C 14.007812 -1.769531 13.304688 -1.109375 12.390625 -0.515625 C 11.484375 0.0664062 10.335938 0.359375 8.953125 0.359375 Z M 9.234375 -1.859375 C 10.242188 -1.859375 11.140625 -2.097656 11.921875 -2.578125 C 12.703125 -3.054688 13.3125 -3.71875 13.75 -4.5625 C 14.1875 -5.414062 14.40625 -6.414062 14.40625 -7.5625 C 14.40625 -8.695312 14.1875 -9.691406 13.75 -10.546875 C 13.3125 -11.398438 12.703125 -12.0625 11.921875 -12.53125 C 11.140625 -13.007812 10.242188 -13.25 9.234375 -13.25 C 8.234375 -13.25 7.34375 -13.007812 6.5625 -12.53125 C 5.78125 -12.0625 5.171875 -11.398438 4.734375 -10.546875 C 4.296875 -9.691406 4.078125 -8.695312 4.078125 -7.5625 C 4.078125 -6.414062 4.296875 -5.414062 4.734375 -4.5625 C 5.171875 -3.71875 5.78125 -3.054688 6.5625 -2.578125 C 7.34375 -2.097656 8.234375 -1.859375 9.234375 -1.859375 Z M 9.234375 -1.859375 "/></g></g></g></svg>