<svg xmlns="http://www.w3.org/2000/svg" xmlns:xlink="http://www.w3.org/1999/xlink" width="169" zoomAndPan="magnify" viewBox="0 0 126.75 37.5" height="50" preserveAspectRatio="xMidYMid meet" version="1.0"><defs><g/><clipPath id="9d691e702a"><path d="M 4 2 L 29.605469 2 L 29.605469 27.992188 L 4 27.992188 Z M 4 2 " clip-rule="nonzero"/></clipPath><clipPath id="f413b2a3c2"><path d="M 1.480469 0.605469 L 13 0.605469 L 13 13 L 1.480469 13 Z M 1.480469 0.605469 " clip-rule="nonzero"/></clipPath><clipPath id="cb0d7ba8c6"><path d="M 16 2 L 29.605469 2 L 29.605469 27.992188 L 16 27.992188 Z M 16 2 " clip-rule="nonzero"/></clipPath><clipPath id="260bc3a4e4"><path d="M 0.710938 0 L 13.59375 0 L 13.59375 13.089844 L 0.710938 13.089844 Z M 0.710938 0 " clip-rule="nonzero"/></clipPath><clipPath id="01a6142f2d"><path d="M 10 8 L 23.808594 8 L 23.808594 22.0625 L 10 22.0625 Z M 10 8 " clip-rule="nonzero"/></clipPath><clipPath id="a9a33ab4ee"><path d="M 8.3125 8 L 16 8 L 16 16 L 8.3125 16 Z M 8.3125 8 " clip-rule="nonzero"/></clipPath></defs><g clip-path="url(#9d691e702a)"><path fill="#5aff7a" d="M 16.761719 2.644531 L 19.949219 2.644531 C 25.175781 2.644531 29.429688 6.898438 29.429688 12.128906 L 29.429688 27.984375 L 13.570312 27.984375 C 8.34375 27.984375 4.089844 23.734375 4.089844 18.503906 L 4.089844 15.316406 L 9.375 15.316406 L 9.375 18.503906 C 9.375 20.820312 11.257812 22.699219 13.570312 22.699219 L 24.144531 22.699219 L 24.144531 12.128906 C 24.144531 9.8125 22.261719 7.929688 19.949219 7.929688 L 16.761719 7.929688 Z M 16.761719 2.644531 " fill-opacity="1" fill-rule="nonzero"/></g><g clip-path="url(#f413b2a3c2)"><path fill="#14edb9" d="M 5.234375 4.574219 L 1.480469 4.574219 L 1.480469 8.273438 L 5.234375 8.273438 L 5.234375 12.027344 L 8.929688 12.027344 L 8.929688 8.273438 L 12.6875 8.273438 L 12.6875 4.574219 L 8.929688 4.574219 L 8.929688 0.820312 L 5.234375 0.820312 Z M 5.234375 4.574219 " fill-opacity="1" fill-rule="nonzero"/></g><g clip-path="url(#cb0d7ba8c6)"><path fill="#d1ff5d" d="M 16.761719 2.644531 L 19.949219 2.644531 C 25.175781 2.644531 29.429688 6.898438 29.429688 12.128906 L 29.429688 27.984375 L 29.167969 27.984375 L 24.035156 22.699219 L 24.144531 22.699219 L 24.144531 12.128906 C 24.144531 9.8125 22.261719 7.929688 19.949219 7.929688 L 16.761719 7.929688 Z M 16.761719 2.644531 " fill-opacity="1" fill-rule="nonzero"/></g><g clip-path="url(#260bc3a4e4)"><path fill="#0d2329" d="M 0.710938 13.089844 L 0.710938 0.0078125 L 13.59375 0.0078125 L 13.59375 13.089844 Z M 0.710938 13.089844 " fill-opacity="1" fill-rule="nonzero"/></g><g clip-path="url(#01a6142f2d)"><path fill="#14edb9" d="M 10.488281 13.800781 C 10.394531 14.222656 10.34375 14.664062 10.34375 15.113281 C 10.34375 18.433594 13.035156 21.125 16.351562 21.125 C 19.671875 21.125 22.363281 18.433594 22.363281 15.113281 C 22.363281 11.796875 19.671875 9.105469 16.351562 9.105469 C 15.203125 9.105469 14.128906 9.429688 13.21875 9.988281 C 14.304688 9.25 15.613281 8.816406 17.027344 8.816406 C 20.769531 8.816406 23.804688 11.851562 23.804688 15.597656 C 23.804688 19.339844 20.769531 22.375 17.027344 22.375 C 13.28125 22.375 10.246094 19.339844 10.246094 15.597656 C 10.246094 14.972656 10.332031 14.371094 10.488281 13.800781 " fill-opacity="1" fill-rule="nonzero"/></g><path fill="#5aff7a" d="M 16.527344 15.34375 C 16.84375 16.105469 16.613281 16.804688 16.390625 17.230469 C 16.40625 16.742188 15.949219 15.789062 14.949219 14.996094 C 14.949219 14.996094 15.882812 15.960938 16.125 16.886719 C 16.296875 17.546875 16.839844 18.050781 17.515625 18.136719 C 17.8125 18.175781 18.121094 18.164062 18.429688 18.097656 C 19.894531 17.789062 20.84375 16.34375 20.542969 14.878906 C 20.25 13.433594 18.867188 12.488281 17.421875 12.726562 C 17.457031 12.71875 17.488281 12.710938 17.523438 12.703125 C 19.121094 12.382812 20.675781 13.417969 20.996094 15.015625 C 21.316406 16.613281 20.28125 18.167969 18.683594 18.488281 C 17.859375 18.652344 17.046875 18.457031 16.410156 18.011719 C 16.105469 17.800781 15.78125 17.617188 15.445312 17.457031 C 14.925781 17.207031 14.273438 16.628906 14.1875 15.296875 C 14.105469 13.984375 13.363281 13.542969 13.363281 13.542969 C 13.363281 13.542969 15.792969 13.578125 16.527344 15.34375 " fill-opacity="1" fill-rule="nonzero"/><path fill="#5aff7a" d="M 18.484375 15.519531 C 18.445312 17.160156 17.164062 17.265625 17.164062 17.265625 C 16.867188 16.515625 17.929688 15.328125 17.929688 15.328125 C 17.234375 15.925781 16.933594 16.625 16.960938 16.976562 C 16.789062 16.675781 16.601562 16.179688 16.808594 15.625 C 17.28125 14.335938 19.023438 14.242188 19.023438 14.242188 C 19.023438 14.242188 18.503906 14.578125 18.484375 15.519531 " fill-opacity="1" fill-rule="nonzero"/><g clip-path="url(#a9a33ab4ee)"><path fill="#14edb9" d="M 10.5625 10.09375 L 10.5625 8.152344 C 10.5625 8.070312 10.632812 8 10.714844 8 L 12.984375 8 C 13.070312 8 13.136719 8.070312 13.136719 8.152344 L 13.136719 10.09375 C 13.136719 10.179688 13.207031 10.246094 13.289062 10.246094 L 15.230469 10.246094 C 15.316406 10.246094 15.382812 10.316406 15.382812 10.398438 L 15.382812 12.667969 C 15.382812 12.753906 15.316406 12.820312 15.230469 12.820312 L 13.289062 12.820312 C 13.207031 12.820312 13.136719 12.890625 13.136719 12.972656 L 13.136719 14.914062 C 13.136719 15 13.070312 15.066406 12.984375 15.066406 L 10.714844 15.066406 C 10.632812 15.066406 10.5625 15 10.5625 14.914062 L 10.5625 12.972656 C 10.5625 12.890625 10.496094 12.820312 10.410156 12.820312 L 8.46875 12.820312 C 8.386719 12.820312 8.316406 12.753906 8.316406 12.667969 L 8.316406 10.398438 C 8.316406 10.316406 8.386719 10.246094 8.46875 10.246094 L 10.410156 10.246094 C 10.496094 10.246094 10.5625 10.179688 10.5625 10.09375 " fill-opacity="1" fill-rule="nonzero"/></g><path fill="#14edb9" d="M 13.769531 18.457031 L 13.769531 17.902344 C 13.769531 17.878906 13.789062 17.859375 13.8125 17.859375 L 14.460938 17.859375 C 14.484375 17.859375 14.503906 17.878906 14.503906 17.902344 L 14.503906 18.457031 C 14.503906 18.480469 14.523438 18.5 14.546875 18.5 L 15.097656 18.5 C 15.125 18.5 15.144531 18.519531 15.144531 18.542969 L 15.144531 19.191406 C 15.144531 19.214844 15.125 19.234375 15.097656 19.234375 L 14.546875 19.234375 C 14.523438 19.234375 14.503906 19.253906 14.503906 19.277344 L 14.503906 19.832031 C 14.503906 19.855469 14.484375 19.875 14.460938 19.875 L 13.8125 19.875 C 13.789062 19.875 13.769531 19.855469 13.769531 19.832031 L 13.769531 19.277344 C 13.769531 19.253906 13.75 19.234375 13.726562 19.234375 L 13.171875 19.234375 C 13.148438 19.234375 13.128906 19.214844 13.128906 19.191406 L 13.128906 18.542969 C 13.128906 18.519531 13.148438 18.5 13.171875 18.5 L 13.726562 18.5 C 13.75 18.5 13.769531 18.480469 13.769531 18.457031 " fill-opacity="1" fill-rule="nonzero"/><path fill="#14edb9" d="M 17.847656 10.605469 L 17.847656 10.050781 C 17.847656 10.027344 17.867188 10.007812 17.890625 10.007812 L 18.539062 10.007812 C 18.5625 10.007812 18.582031 10.027344 18.582031 10.050781 L 18.582031 10.605469 C 18.582031 10.628906 18.601562 10.648438 18.625 10.648438 L 19.179688 10.648438 C 19.203125 10.648438 19.222656 10.667969 19.222656 10.691406 L 19.222656 11.339844 C 19.222656 11.363281 19.203125 11.382812 19.179688 11.382812 L 18.625 11.382812 C 18.601562 11.382812 18.582031 11.402344 18.582031 11.425781 L 18.582031 11.980469 C 18.582031 12.003906 18.5625 12.023438 18.539062 12.023438 L 17.890625 12.023438 C 17.867188 12.023438 17.847656 12.003906 17.847656 11.980469 L 17.847656 11.425781 C 17.847656 11.402344 17.828125 11.382812 17.804688 11.382812 L 17.25 11.382812 C 17.226562 11.382812 17.207031 11.363281 17.207031 11.339844 L 17.207031 10.691406 C 17.207031 10.667969 17.226562 10.648438 17.25 10.648438 L 17.804688 10.648438 C 17.828125 10.648438 17.847656 10.628906 17.847656 10.605469 " fill-opacity="1" fill-rule="nonzero"/><g fill="#ffffff" fill-opacity="1"><g transform="translate(31.782533, 25.929988)"><g><path d="M 4.4375 0 L 0.53125 -14.8125 L 3.421875 -14.8125 L 6.09375 -3.03125 L 9.21875 -14.8125 L 12.203125 -14.8125 L 15.25 -3.03125 L 17.921875 -14.8125 L 20.84375 -14.8125 L 16.8125 0 L 13.609375 0 L 10.65625 -10.984375 L 7.640625 0 Z M 4.4375 0 "/></g></g></g><g fill="#ffffff" fill-opacity="1"><g transform="translate(51.141369, 25.929988)"><g><path d="M 2.828125 -12.125 C 2.335938 -12.125 1.929688 -12.269531 1.609375 -12.5625 C 1.296875 -12.863281 1.140625 -13.238281 1.140625 -13.6875 C 1.140625 -14.132812 1.296875 -14.503906 1.609375 -14.796875 C 1.929688 -15.085938 2.335938 -15.234375 2.828125 -15.234375 C 3.328125 -15.234375 3.734375 -15.085938 4.046875 -14.796875 C 4.367188 -14.503906 4.53125 -14.132812 4.53125 -13.6875 C 4.53125 -13.238281 4.367188 -12.863281 4.046875 -12.5625 C 3.734375 -12.269531 3.328125 -12.125 2.828125 -12.125 Z M 1.484375 0 L 1.484375 -10.5 L 4.1875 -10.5 L 4.1875 0 Z M 1.484375 0 "/></g></g></g><g fill="#ffffff" fill-opacity="1"><g transform="translate(54.78013, 25.929988)"><g><path d="M 5.71875 0.25 C 4.78125 0.25 3.957031 0.0976562 3.25 -0.203125 C 2.550781 -0.503906 1.988281 -0.921875 1.5625 -1.453125 C 1.144531 -1.992188 0.890625 -2.617188 0.796875 -3.328125 L 3.53125 -3.328125 C 3.613281 -2.910156 3.84375 -2.554688 4.21875 -2.265625 C 4.59375 -1.984375 5.078125 -1.84375 5.671875 -1.84375 C 6.265625 -1.84375 6.695312 -1.960938 6.96875 -2.203125 C 7.25 -2.441406 7.390625 -2.71875 7.390625 -3.03125 C 7.390625 -3.476562 7.191406 -3.78125 6.796875 -3.9375 C 6.398438 -4.101562 5.847656 -4.265625 5.140625 -4.421875 C 4.691406 -4.515625 4.234375 -4.632812 3.765625 -4.78125 C 3.296875 -4.925781 2.867188 -5.109375 2.484375 -5.328125 C 2.097656 -5.546875 1.785156 -5.828125 1.546875 -6.171875 C 1.304688 -6.515625 1.1875 -6.941406 1.1875 -7.453125 C 1.1875 -8.378906 1.554688 -9.160156 2.296875 -9.796875 C 3.035156 -10.429688 4.078125 -10.75 5.421875 -10.75 C 6.660156 -10.75 7.648438 -10.457031 8.390625 -9.875 C 9.128906 -9.300781 9.566406 -8.503906 9.703125 -7.484375 L 7.15625 -7.484375 C 7 -8.265625 6.410156 -8.65625 5.390625 -8.65625 C 4.890625 -8.65625 4.5 -8.554688 4.21875 -8.359375 C 3.945312 -8.160156 3.8125 -7.910156 3.8125 -7.609375 C 3.8125 -7.304688 4.015625 -7.0625 4.421875 -6.875 C 4.828125 -6.6875 5.367188 -6.519531 6.046875 -6.375 C 6.785156 -6.195312 7.457031 -6.003906 8.0625 -5.796875 C 8.675781 -5.597656 9.164062 -5.296875 9.53125 -4.890625 C 9.90625 -4.492188 10.09375 -3.921875 10.09375 -3.171875 C 10.101562 -2.523438 9.929688 -1.941406 9.578125 -1.421875 C 9.234375 -0.898438 8.726562 -0.488281 8.0625 -0.1875 C 7.394531 0.101562 6.613281 0.25 5.71875 0.25 Z M 5.71875 0.25 "/></g></g></g><g fill="#ffffff" fill-opacity="1"><g transform="translate(63.877542, 25.929988)"><g><path d="M 5 0.25 C 4.09375 0.25 3.347656 0.109375 2.765625 -0.171875 C 2.191406 -0.460938 1.765625 -0.847656 1.484375 -1.328125 C 1.203125 -1.804688 1.0625 -2.335938 1.0625 -2.921875 C 1.0625 -3.890625 1.441406 -4.675781 2.203125 -5.28125 C 2.960938 -5.894531 4.101562 -6.203125 5.625 -6.203125 L 8.296875 -6.203125 L 8.296875 -6.453125 C 8.296875 -7.171875 8.085938 -7.695312 7.671875 -8.03125 C 7.265625 -8.375 6.757812 -8.546875 6.15625 -8.546875 C 5.601562 -8.546875 5.125 -8.414062 4.71875 -8.15625 C 4.3125 -7.894531 4.054688 -7.507812 3.953125 -7 L 1.3125 -7 C 1.382812 -7.757812 1.640625 -8.421875 2.078125 -8.984375 C 2.523438 -9.554688 3.097656 -9.992188 3.796875 -10.296875 C 4.503906 -10.597656 5.296875 -10.75 6.171875 -10.75 C 7.671875 -10.75 8.847656 -10.375 9.703125 -9.625 C 10.566406 -8.875 11 -7.816406 11 -6.453125 L 11 0 L 8.6875 0 L 8.4375 -1.6875 C 8.125 -1.125 7.6875 -0.660156 7.125 -0.296875 C 6.570312 0.0664062 5.863281 0.25 5 0.25 Z M 5.609375 -1.859375 C 6.378906 -1.859375 6.976562 -2.113281 7.40625 -2.625 C 7.84375 -3.132812 8.117188 -3.757812 8.234375 -4.5 L 5.921875 -4.5 C 5.203125 -4.5 4.6875 -4.367188 4.375 -4.109375 C 4.0625 -3.847656 3.90625 -3.53125 3.90625 -3.15625 C 3.90625 -2.738281 4.0625 -2.414062 4.375 -2.1875 C 4.6875 -1.96875 5.097656 -1.859375 5.609375 -1.859375 Z M 5.609375 -1.859375 "/></g></g></g><g fill="#ffffff" fill-opacity="1"><g transform="translate(74.075147, 25.929988)"><g><path d="M 1.375 0 L 1.375 -15.234375 L 4.078125 -15.234375 L 4.078125 0 Z M 1.375 0 "/></g></g></g><g fill="#ffffff" fill-opacity="1"><g transform="translate(77.544643, 25.929988)"><g><path d="M 1.4375 0 L 1.4375 -14.8125 L 4.65625 -14.8125 L 9.375 -5.421875 L 14.03125 -14.8125 L 17.25 -14.8125 L 17.25 0 L 14.53125 0 L 14.53125 -10.21875 L 10.40625 -2.109375 L 8.265625 -2.109375 L 4.140625 -10.21875 L 4.140625 0 Z M 1.4375 0 "/></g></g></g><g fill="#ffffff" fill-opacity="1"><g transform="translate(94.216468, 25.929988)"><g><path d="M 6.46875 0.25 C 5.414062 0.25 4.476562 0.0234375 3.65625 -0.421875 C 2.84375 -0.867188 2.203125 -1.5 1.734375 -2.3125 C 1.265625 -3.132812 1.03125 -4.082031 1.03125 -5.15625 C 1.03125 -6.25 1.257812 -7.21875 1.71875 -8.0625 C 2.175781 -8.90625 2.8125 -9.5625 3.625 -10.03125 C 4.4375 -10.507812 5.394531 -10.75 6.5 -10.75 C 7.53125 -10.75 8.4375 -10.519531 9.21875 -10.0625 C 10.007812 -9.613281 10.625 -9 11.0625 -8.21875 C 11.507812 -7.4375 11.734375 -6.566406 11.734375 -5.609375 C 11.734375 -5.453125 11.726562 -5.285156 11.71875 -5.109375 C 11.71875 -4.941406 11.710938 -4.769531 11.703125 -4.59375 L 3.71875 -4.59375 C 3.78125 -3.769531 4.066406 -3.125 4.578125 -2.65625 C 5.097656 -2.195312 5.722656 -1.96875 6.453125 -1.96875 C 7.003906 -1.96875 7.46875 -2.085938 7.84375 -2.328125 C 8.21875 -2.578125 8.492188 -2.898438 8.671875 -3.296875 L 11.421875 -3.296875 C 11.222656 -2.640625 10.894531 -2.035156 10.4375 -1.484375 C 9.976562 -0.941406 9.414062 -0.515625 8.75 -0.203125 C 8.082031 0.0976562 7.320312 0.25 6.46875 0.25 Z M 6.5 -8.546875 C 5.832031 -8.546875 5.242188 -8.359375 4.734375 -7.984375 C 4.234375 -7.609375 3.910156 -7.039062 3.765625 -6.28125 L 8.984375 -6.28125 C 8.941406 -6.96875 8.6875 -7.515625 8.21875 -7.921875 C 7.757812 -8.335938 7.1875 -8.546875 6.5 -8.546875 Z M 6.5 -8.546875 "/></g></g></g><g fill="#ffffff" fill-opacity="1"><g transform="translate(104.858381, 25.929988)"><g><path d="M 6.203125 0.25 C 5.210938 0.25 4.328125 0.0078125 3.546875 -0.46875 C 2.773438 -0.945312 2.160156 -1.601562 1.703125 -2.4375 C 1.253906 -3.269531 1.03125 -4.210938 1.03125 -5.265625 C 1.03125 -6.328125 1.253906 -7.269531 1.703125 -8.09375 C 2.160156 -8.914062 2.773438 -9.5625 3.546875 -10.03125 C 4.328125 -10.507812 5.210938 -10.75 6.203125 -10.75 C 6.992188 -10.75 7.679688 -10.597656 8.265625 -10.296875 C 8.859375 -10.003906 9.335938 -9.59375 9.703125 -9.0625 L 9.703125 -15.234375 L 12.421875 -15.234375 L 12.421875 0 L 10 0 L 9.703125 -1.5 C 9.367188 -1.03125 8.921875 -0.617188 8.359375 -0.265625 C 7.804688 0.078125 7.085938 0.25 6.203125 0.25 Z M 6.765625 -2.109375 C 7.640625 -2.109375 8.351562 -2.398438 8.90625 -2.984375 C 9.46875 -3.578125 9.75 -4.332031 9.75 -5.25 C 9.75 -6.164062 9.46875 -6.914062 8.90625 -7.5 C 8.351562 -8.082031 7.640625 -8.375 6.765625 -8.375 C 5.910156 -8.375 5.195312 -8.082031 4.625 -7.5 C 4.0625 -6.925781 3.78125 -6.179688 3.78125 -5.265625 C 3.78125 -4.347656 4.0625 -3.59375 4.625 -3 C 5.195312 -2.40625 5.910156 -2.109375 6.765625 -2.109375 Z M 6.765625 -2.109375 "/></g></g></g></svg>