<svg xmlns="http://www.w3.org/2000/svg" xmlns:xlink="http://www.w3.org/1999/xlink" width="240" zoomAndPan="magnify" viewBox="0 0 180 48.75" height="65" preserveAspectRatio="xMidYMid meet" version="1.0"><defs><g/><clipPath id="70b207ff83"><path d="M 4 8 L 36.492188 8 L 36.492188 39.960938 L 4 39.960938 Z M 4 8 " clip-rule="nonzero"/></clipPath><clipPath id="96313bf641"><path d="M 1.421875 6.386719 L 16 6.386719 L 16 21 L 1.421875 21 Z M 1.421875 6.386719 " clip-rule="nonzero"/></clipPath><clipPath id="bde8469f37"><path d="M 20 8 L 36.492188 8 L 36.492188 39.960938 L 20 39.960938 Z M 20 8 " clip-rule="nonzero"/></clipPath><clipPath id="26c7ac5782"><path d="M 0.460938 5.175781 L 16.464844 5.175781 L 16.464844 21.449219 L 0.460938 21.449219 Z M 0.460938 5.175781 " clip-rule="nonzero"/></clipPath><clipPath id="90671b2780"><path d="M 12 16 L 29.152344 16 L 29.152344 33 L 12 33 Z M 12 16 " clip-rule="nonzero"/></clipPath><clipPath id="8e91ff7a42"><path d="M 9.90625 15.125 L 19 15.125 L 19 24 L 9.90625 24 Z M 9.90625 15.125 " clip-rule="nonzero"/></clipPath></defs><g clip-path="url(#70b207ff83)"><path fill="#5aff7a" d="M 20.40625 8.46875 L 24.367188 8.46875 C 30.859375 8.46875 36.144531 13.753906 36.144531 20.246094 L 36.144531 39.949219 L 16.445312 39.949219 C 9.949219 39.949219 4.667969 34.664062 4.667969 28.167969 L 4.667969 24.207031 L 11.234375 24.207031 L 11.234375 28.167969 C 11.234375 31.042969 13.570312 33.382812 16.445312 33.382812 L 29.578125 33.382812 L 29.578125 20.246094 C 29.578125 17.375 27.238281 15.035156 24.367188 15.035156 L 20.40625 15.035156 Z M 20.40625 8.46875 " fill-opacity="1" fill-rule="nonzero"/></g><g clip-path="url(#96313bf641)"><path fill="#14edb9" d="M 6.085938 10.867188 L 1.421875 10.867188 L 1.421875 15.457031 L 6.085938 15.457031 L 6.085938 20.121094 L 10.679688 20.121094 L 10.679688 15.457031 L 15.34375 15.457031 L 15.34375 10.867188 L 10.679688 10.867188 L 10.679688 6.203125 L 6.085938 6.203125 Z M 6.085938 10.867188 " fill-opacity="1" fill-rule="nonzero"/></g><g clip-path="url(#bde8469f37)"><path fill="#d1ff5d" d="M 20.40625 8.46875 L 24.367188 8.46875 C 30.859375 8.46875 36.144531 13.753906 36.144531 20.246094 L 36.144531 39.949219 L 35.816406 39.949219 L 29.441406 33.382812 L 29.578125 33.382812 L 29.578125 20.246094 C 29.578125 17.375 27.238281 15.035156 24.367188 15.035156 L 20.40625 15.035156 Z M 20.40625 8.46875 " fill-opacity="1" fill-rule="nonzero"/></g><g clip-path="url(#26c7ac5782)"><path fill="#0d2329" d="M 0.460938 21.449219 L 0.460938 5.195312 L 16.464844 5.195312 L 16.464844 21.449219 Z M 0.460938 21.449219 " fill-opacity="1" fill-rule="nonzero"/></g><g clip-path="url(#90671b2780)"><path fill="#14edb9" d="M 12.605469 22.328125 C 12.488281 22.855469 12.425781 23.402344 12.425781 23.964844 C 12.425781 28.089844 15.769531 31.429688 19.890625 31.429688 C 24.015625 31.429688 27.359375 28.089844 27.359375 23.964844 C 27.359375 19.839844 24.015625 16.496094 19.890625 16.496094 C 18.464844 16.496094 17.128906 16.898438 15.996094 17.59375 C 17.34375 16.675781 18.972656 16.136719 20.726562 16.136719 C 25.378906 16.136719 29.152344 19.910156 29.152344 24.5625 C 29.152344 29.214844 25.378906 32.984375 20.726562 32.984375 C 16.078125 32.984375 12.304688 29.214844 12.304688 24.5625 C 12.304688 23.789062 12.410156 23.039062 12.605469 22.328125 " fill-opacity="1" fill-rule="nonzero"/></g><path fill="#5aff7a" d="M 20.109375 24.25 C 20.503906 25.195312 20.214844 26.066406 19.941406 26.59375 C 19.960938 25.984375 19.390625 24.800781 18.144531 23.816406 C 18.144531 23.816406 19.308594 25.015625 19.605469 26.164062 C 19.820312 26.984375 20.496094 27.609375 21.335938 27.71875 C 21.707031 27.765625 22.089844 27.753906 22.472656 27.671875 C 24.292969 27.289062 25.46875 25.492188 25.101562 23.671875 C 24.734375 21.875 23.015625 20.699219 21.21875 20.996094 C 21.261719 20.984375 21.304688 20.976562 21.34375 20.96875 C 23.328125 20.570312 25.261719 21.855469 25.660156 23.839844 C 26.058594 25.824219 24.769531 27.757812 22.785156 28.15625 C 21.761719 28.359375 20.753906 28.117188 19.960938 27.5625 C 19.585938 27.300781 19.183594 27.074219 18.765625 26.875 C 18.117188 26.566406 17.308594 25.847656 17.203125 24.1875 C 17.097656 22.558594 16.175781 22.011719 16.175781 22.011719 C 16.175781 22.011719 19.195312 22.054688 20.109375 24.25 " fill-opacity="1" fill-rule="nonzero"/><path fill="#5aff7a" d="M 22.539062 24.46875 C 22.492188 26.503906 20.902344 26.636719 20.902344 26.636719 C 20.53125 25.707031 21.851562 24.230469 21.851562 24.230469 C 20.988281 24.972656 20.613281 25.839844 20.644531 26.273438 C 20.433594 25.90625 20.199219 25.289062 20.457031 24.597656 C 21.046875 22.996094 23.210938 22.878906 23.210938 22.878906 C 23.210938 22.878906 22.566406 23.296875 22.539062 24.46875 " fill-opacity="1" fill-rule="nonzero"/><g clip-path="url(#8e91ff7a42)"><path fill="#14edb9" d="M 12.699219 17.726562 L 12.699219 15.3125 C 12.699219 15.207031 12.78125 15.125 12.886719 15.125 L 15.707031 15.125 C 15.8125 15.125 15.894531 15.207031 15.894531 15.3125 L 15.894531 17.726562 C 15.894531 17.832031 15.980469 17.914062 16.085938 17.914062 L 18.5 17.914062 C 18.601562 17.914062 18.6875 18 18.6875 18.105469 L 18.6875 20.925781 C 18.6875 21.027344 18.601562 21.113281 18.5 21.113281 L 16.085938 21.113281 C 15.980469 21.113281 15.894531 21.199219 15.894531 21.300781 L 15.894531 23.714844 C 15.894531 23.820312 15.8125 23.902344 15.707031 23.902344 L 12.886719 23.902344 C 12.78125 23.902344 12.699219 23.820312 12.699219 23.714844 L 12.699219 21.300781 C 12.699219 21.199219 12.613281 21.113281 12.507812 21.113281 L 10.09375 21.113281 C 9.992188 21.113281 9.90625 21.027344 9.90625 20.925781 L 9.90625 18.105469 C 9.90625 18 9.992188 17.914062 10.09375 17.914062 L 12.507812 17.914062 C 12.613281 17.914062 12.699219 17.832031 12.699219 17.726562 " fill-opacity="1" fill-rule="nonzero"/></g><path fill="#14edb9" d="M 16.679688 28.117188 L 16.679688 27.429688 C 16.679688 27.398438 16.703125 27.375 16.734375 27.375 L 17.539062 27.375 C 17.570312 27.375 17.59375 27.398438 17.59375 27.429688 L 17.59375 28.117188 C 17.59375 28.144531 17.617188 28.167969 17.644531 28.167969 L 18.335938 28.167969 C 18.363281 28.167969 18.386719 28.195312 18.386719 28.222656 L 18.386719 29.027344 C 18.386719 29.058594 18.363281 29.082031 18.335938 29.082031 L 17.644531 29.082031 C 17.617188 29.082031 17.59375 29.105469 17.59375 29.136719 L 17.59375 29.824219 C 17.59375 29.851562 17.570312 29.878906 17.539062 29.878906 L 16.734375 29.878906 C 16.703125 29.878906 16.679688 29.851562 16.679688 29.824219 L 16.679688 29.136719 C 16.679688 29.105469 16.65625 29.082031 16.628906 29.082031 L 15.9375 29.082031 C 15.910156 29.082031 15.886719 29.058594 15.886719 29.027344 L 15.886719 28.222656 C 15.886719 28.195312 15.910156 28.167969 15.9375 28.167969 L 16.628906 28.167969 C 16.65625 28.167969 16.679688 28.144531 16.679688 28.117188 " fill-opacity="1" fill-rule="nonzero"/><path fill="#14edb9" d="M 21.75 18.359375 L 21.75 17.671875 C 21.75 17.640625 21.773438 17.617188 21.804688 17.617188 L 22.609375 17.617188 C 22.636719 17.617188 22.660156 17.640625 22.660156 17.671875 L 22.660156 18.359375 C 22.660156 18.390625 22.683594 18.414062 22.714844 18.414062 L 23.402344 18.414062 C 23.433594 18.414062 23.457031 18.4375 23.457031 18.46875 L 23.457031 19.273438 C 23.457031 19.300781 23.433594 19.324219 23.402344 19.324219 L 22.714844 19.324219 C 22.683594 19.324219 22.660156 19.347656 22.660156 19.378906 L 22.660156 20.066406 C 22.660156 20.097656 22.636719 20.121094 22.609375 20.121094 L 21.804688 20.121094 C 21.773438 20.121094 21.75 20.097656 21.75 20.066406 L 21.75 19.378906 C 21.75 19.347656 21.726562 19.324219 21.695312 19.324219 L 21.007812 19.324219 C 20.976562 19.324219 20.953125 19.300781 20.953125 19.273438 L 20.953125 18.46875 C 20.953125 18.4375 20.976562 18.414062 21.007812 18.414062 L 21.695312 18.414062 C 21.726562 18.414062 21.75 18.390625 21.75 18.359375 " fill-opacity="1" fill-rule="nonzero"/><g fill="#ffffff" fill-opacity="1"><g transform="translate(43.272088, 33.489561)"><g><path d="M 6.234375 0 L 0.75 -20.796875 L 4.8125 -20.796875 L 8.546875 -4.25 L 12.953125 -20.796875 L 17.140625 -20.796875 L 21.421875 -4.25 L 25.15625 -20.796875 L 29.25 -20.796875 L 23.609375 0 L 19.09375 0 L 14.96875 -15.421875 L 10.71875 0 Z M 6.234375 0 "/></g></g></g><g fill="#ffffff" fill-opacity="1"><g transform="translate(70.443111, 33.489561)"><g><path d="M 3.984375 -17.015625 C 3.285156 -17.015625 2.710938 -17.222656 2.265625 -17.640625 C 1.828125 -18.054688 1.609375 -18.582031 1.609375 -19.21875 C 1.609375 -19.851562 1.828125 -20.375 2.265625 -20.78125 C 2.710938 -21.1875 3.285156 -21.390625 3.984375 -21.390625 C 4.671875 -21.390625 5.238281 -21.1875 5.6875 -20.78125 C 6.132812 -20.375 6.359375 -19.851562 6.359375 -19.21875 C 6.359375 -18.582031 6.132812 -18.054688 5.6875 -17.640625 C 5.238281 -17.222656 4.671875 -17.015625 3.984375 -17.015625 Z M 2.078125 0 L 2.078125 -14.734375 L 5.875 -14.734375 L 5.875 0 Z M 2.078125 0 "/></g></g></g><g fill="#ffffff" fill-opacity="1"><g transform="translate(75.549277, 33.489561)"><g><path d="M 8.015625 0.359375 C 6.710938 0.359375 5.566406 0.144531 4.578125 -0.28125 C 3.585938 -0.707031 2.796875 -1.296875 2.203125 -2.046875 C 1.609375 -2.796875 1.25 -3.664062 1.125 -4.65625 L 4.953125 -4.65625 C 5.078125 -4.082031 5.398438 -3.59375 5.921875 -3.1875 C 6.453125 -2.78125 7.128906 -2.578125 7.953125 -2.578125 C 8.785156 -2.578125 9.394531 -2.742188 9.78125 -3.078125 C 10.164062 -3.421875 10.359375 -3.8125 10.359375 -4.25 C 10.359375 -4.882812 10.082031 -5.3125 9.53125 -5.53125 C 8.976562 -5.757812 8.207031 -5.984375 7.21875 -6.203125 C 6.582031 -6.347656 5.9375 -6.519531 5.28125 -6.71875 C 4.632812 -6.914062 4.035156 -7.164062 3.484375 -7.46875 C 2.941406 -7.78125 2.5 -8.175781 2.15625 -8.65625 C 1.820312 -9.144531 1.65625 -9.742188 1.65625 -10.453125 C 1.65625 -11.765625 2.175781 -12.863281 3.21875 -13.75 C 4.257812 -14.644531 5.722656 -15.09375 7.609375 -15.09375 C 9.347656 -15.09375 10.738281 -14.6875 11.78125 -13.875 C 12.820312 -13.0625 13.441406 -11.941406 13.640625 -10.515625 L 10.046875 -10.515625 C 9.828125 -11.609375 9.003906 -12.15625 7.578125 -12.15625 C 6.859375 -12.15625 6.304688 -12.015625 5.921875 -11.734375 C 5.535156 -11.453125 5.34375 -11.101562 5.34375 -10.6875 C 5.34375 -10.257812 5.628906 -9.914062 6.203125 -9.65625 C 6.773438 -9.394531 7.539062 -9.15625 8.5 -8.9375 C 9.53125 -8.695312 10.472656 -8.429688 11.328125 -8.140625 C 12.191406 -7.859375 12.878906 -7.4375 13.390625 -6.875 C 13.910156 -6.3125 14.171875 -5.503906 14.171875 -4.453125 C 14.191406 -3.546875 13.953125 -2.722656 13.453125 -1.984375 C 12.960938 -1.253906 12.25 -0.679688 11.3125 -0.265625 C 10.382812 0.148438 9.285156 0.359375 8.015625 0.359375 Z M 8.015625 0.359375 "/></g></g></g><g fill="#ffffff" fill-opacity="1"><g transform="translate(88.317261, 33.489561)"><g><path d="M 7.015625 0.359375 C 5.742188 0.359375 4.703125 0.15625 3.890625 -0.25 C 3.078125 -0.65625 2.472656 -1.191406 2.078125 -1.859375 C 1.679688 -2.535156 1.484375 -3.28125 1.484375 -4.09375 C 1.484375 -5.46875 2.015625 -6.578125 3.078125 -7.421875 C 4.148438 -8.273438 5.757812 -8.703125 7.90625 -8.703125 L 11.640625 -8.703125 L 11.640625 -9.0625 C 11.640625 -10.070312 11.351562 -10.8125 10.78125 -11.28125 C 10.207031 -11.757812 9.492188 -12 8.640625 -12 C 7.867188 -12 7.195312 -11.816406 6.625 -11.453125 C 6.050781 -11.085938 5.691406 -10.546875 5.546875 -9.828125 L 1.84375 -9.828125 C 1.9375 -10.898438 2.296875 -11.832031 2.921875 -12.625 C 3.546875 -13.414062 4.351562 -14.023438 5.34375 -14.453125 C 6.332031 -14.878906 7.441406 -15.09375 8.671875 -15.09375 C 10.773438 -15.09375 12.429688 -14.566406 13.640625 -13.515625 C 14.847656 -12.460938 15.453125 -10.976562 15.453125 -9.0625 L 15.453125 0 L 12.203125 0 L 11.84375 -2.375 C 11.414062 -1.582031 10.804688 -0.925781 10.015625 -0.40625 C 9.234375 0.101562 8.234375 0.359375 7.015625 0.359375 Z M 7.875 -2.609375 C 8.957031 -2.609375 9.800781 -2.960938 10.40625 -3.671875 C 11.007812 -4.390625 11.390625 -5.273438 11.546875 -6.328125 L 8.3125 -6.328125 C 7.300781 -6.328125 6.578125 -6.144531 6.140625 -5.78125 C 5.710938 -5.414062 5.5 -4.960938 5.5 -4.421875 C 5.5 -3.847656 5.710938 -3.398438 6.140625 -3.078125 C 6.578125 -2.765625 7.15625 -2.609375 7.875 -2.609375 Z M 7.875 -2.609375 "/></g></g></g><g fill="#ffffff" fill-opacity="1"><g transform="translate(102.629492, 33.489561)"><g><path d="M 1.9375 0 L 1.9375 -21.390625 L 5.734375 -21.390625 L 5.734375 0 Z M 1.9375 0 "/></g></g></g><g fill="#ffffff" fill-opacity="1"><g transform="translate(107.498091, 33.489561)"><g><path d="M 2.015625 0 L 2.015625 -20.796875 L 6.53125 -20.796875 L 13.15625 -7.609375 L 19.6875 -20.796875 L 24.203125 -20.796875 L 24.203125 0 L 20.40625 0 L 20.40625 -14.34375 L 14.609375 -2.96875 L 11.609375 -2.96875 L 5.828125 -14.34375 L 5.828125 0 Z M 2.015625 0 "/></g></g></g><g fill="#ffffff" fill-opacity="1"><g transform="translate(130.897598, 33.489561)"><g><path d="M 9.09375 0.359375 C 7.601562 0.359375 6.285156 0.0390625 5.140625 -0.59375 C 3.992188 -1.226562 3.09375 -2.117188 2.4375 -3.265625 C 1.78125 -4.410156 1.453125 -5.738281 1.453125 -7.25 C 1.453125 -8.769531 1.773438 -10.125 2.421875 -11.3125 C 3.066406 -12.5 3.957031 -13.425781 5.09375 -14.09375 C 6.226562 -14.757812 7.570312 -15.09375 9.125 -15.09375 C 10.5625 -15.09375 11.832031 -14.773438 12.9375 -14.140625 C 14.050781 -13.503906 14.921875 -12.632812 15.546875 -11.53125 C 16.171875 -10.4375 16.484375 -9.21875 16.484375 -7.875 C 16.484375 -7.65625 16.476562 -7.425781 16.46875 -7.1875 C 16.457031 -6.945312 16.441406 -6.703125 16.421875 -6.453125 L 5.234375 -6.453125 C 5.304688 -5.296875 5.703125 -4.390625 6.421875 -3.734375 C 7.148438 -3.085938 8.03125 -2.765625 9.0625 -2.765625 C 9.832031 -2.765625 10.476562 -2.9375 11 -3.28125 C 11.53125 -3.625 11.921875 -4.078125 12.171875 -4.640625 L 16.046875 -4.640625 C 15.765625 -3.703125 15.300781 -2.851562 14.65625 -2.09375 C 14.007812 -1.332031 13.21875 -0.734375 12.28125 -0.296875 C 11.34375 0.140625 10.28125 0.359375 9.09375 0.359375 Z M 9.125 -12 C 8.1875 -12 7.359375 -11.734375 6.640625 -11.203125 C 5.929688 -10.679688 5.476562 -9.890625 5.28125 -8.828125 L 12.625 -8.828125 C 12.5625 -9.796875 12.203125 -10.566406 11.546875 -11.140625 C 10.898438 -11.710938 10.09375 -12 9.125 -12 Z M 9.125 -12 "/></g></g></g><g fill="#ffffff" fill-opacity="1"><g transform="translate(145.83347, 33.489561)"><g><path d="M 8.703125 0.359375 C 7.316406 0.359375 6.078125 0.0234375 4.984375 -0.640625 C 3.898438 -1.316406 3.039062 -2.238281 2.40625 -3.40625 C 1.769531 -4.582031 1.453125 -5.910156 1.453125 -7.390625 C 1.453125 -8.878906 1.769531 -10.203125 2.40625 -11.359375 C 3.039062 -12.515625 3.898438 -13.425781 4.984375 -14.09375 C 6.078125 -14.757812 7.316406 -15.09375 8.703125 -15.09375 C 9.804688 -15.09375 10.773438 -14.882812 11.609375 -14.46875 C 12.441406 -14.050781 13.117188 -13.46875 13.640625 -12.71875 L 13.640625 -21.390625 L 17.4375 -21.390625 L 17.4375 0 L 14.046875 0 L 13.640625 -2.109375 C 13.160156 -1.453125 12.53125 -0.875 11.75 -0.375 C 10.96875 0.113281 9.953125 0.359375 8.703125 0.359375 Z M 9.5 -2.96875 C 10.726562 -2.96875 11.734375 -3.378906 12.515625 -4.203125 C 13.296875 -5.023438 13.6875 -6.078125 13.6875 -7.359375 C 13.6875 -8.648438 13.296875 -9.707031 12.515625 -10.53125 C 11.734375 -11.351562 10.726562 -11.765625 9.5 -11.765625 C 8.289062 -11.765625 7.289062 -11.359375 6.5 -10.546875 C 5.707031 -9.734375 5.3125 -8.679688 5.3125 -7.390625 C 5.3125 -6.109375 5.707031 -5.050781 6.5 -4.21875 C 7.289062 -3.382812 8.289062 -2.96875 9.5 -2.96875 Z M 9.5 -2.96875 "/></g></g></g></svg>